<svg xmlns="http://www.w3.org/2000/svg" viewBox="0 0 200 200">
  <defs>
    <linearGradient id="orangeGrad" x1="0%" y1="0%" x2="100%" y2="100%">
      <stop offset="0%" style="stop-color:#f97316"/>
      <stop offset="100%" style="stop-color:#ea580c"/>
    </linearGradient>
    <linearGradient id="darkGrad" x1="0%" y1="0%" x2="100%" y2="100%">
      <stop offset="0%" style="stop-color:#2d2d3a"/>
      <stop offset="100%" style="stop-color:#1a1a2e"/>
    </linearGradient>
  </defs>
  <!-- Background circle -->
  <circle cx="100" cy="100" r="95" fill="url(#orangeGrad)"/>
  <!-- Tiger face silhouette -->
  <path d="M100 30 L130 50 L150 40 L140 70 L160 90 L150 130 L120 160 L100 170 L80 160 L50 130 L40 90 L60 70 L50 40 L70 50 Z" fill="url(#darkGrad)"/>
  <!-- Eyes -->
  <path d="M65 85 L85 95 L75 105 Z" fill="#f97316"/>
  <path d="M135 85 L115 95 L125 105 Z" fill="#f97316"/>
  <!-- Nose -->
  <path d="M90 125 L110 125 L100 140 Z" fill="#f97316"/>
  <!-- Stripes -->
  <path d="M50 70 L70 75 L50 80" fill="#1a1a2e"/>
  <path d="M150 70 L130 75 L150 80" fill="#1a1a2e"/>
  <path d="M45 100 L65 105 L45 110" fill="#1a1a2e"/>
  <path d="M155 100 L135 105 L155 110" fill="#1a1a2e"/>
</svg>
